<svg width="1024" height="1024" viewBox="0 0 1024 1024" fill="none" xmlns="http://www.w3.org/2000/svg">
<path d="M211.308 400.5C211.308 325 230.242 287 300 287V325C269.606 325 247.183 325 247.183 400.5C247.183 460 247.183 489.5 211.308 512H156V497C211.308 481 211.308 464 211.308 400.5Z" fill="white"/>
<path d="M211.308 623.5C211.308 699 230.242 737 300 737V699C269.606 699 247.183 699 247.183 623.5C247.183 564 247.183 534.5 211.308 512H156V527C211.308 543 211.308 560 211.308 623.5Z" fill="white"/>
<path d="M811.692 400.5C811.692 325 792.758 287 723 287V325C753.394 325 775.817 325 775.817 400.5C775.817 460 775.817 489.5 811.692 512H867V497C811.692 481 811.692 464 811.692 400.5Z" fill="white"/>
<path d="M811.692 623.5C811.692 699 792.758 737 723 737V699C753.394 699 775.817 699 775.817 623.5C775.817 564 775.817 534.5 811.692 512H867V527C811.692 543 811.692 560 811.692 623.5Z" fill="white"/>
<path d="M307 494H329H382C411 494 411 444 382 444H307V423H391.5C433 430.5 440 482.5 406.5 501.5C441 508.5 442.5 566.5 406.5 583C397.106 584.969 392.474 584.831 384 585V565C419.5 565 419 512 384 512H329V565H384V585H329H307V494Z" fill="white"/>
<path d="M564.079 378.5H579L481.921 628H467L564.079 378.5Z" fill="url(#paint0_linear_61_5)"/>
<circle cx="466" cy="476" r="15" fill="#67B06A"/>
<circle cx="466" cy="546" r="15" fill="#67B06A"/>
<path d="M648.762 468.259C682.76 467.898 684.754 514.38 649.256 514.757C635.823 514.899 626.823 514.995 626.855 517.994C652.794 512.219 651.644 545.233 627.13 543.993L622.067 544.047C591.069 544.376 589.065 496.895 621.563 496.55C643.562 496.316 648.932 484.258 648.762 468.259ZM635 522C632.239 522 630 524.238 630 527C630 529.761 632.239 532 635 532C637.761 532 640 529.761 640 527C640 524.238 637.761 522 635 522ZM616.5 468.05C590.5 473.55 592 440.55 616.5 442.05H621.563C652.563 442.05 654.063 489.549 621.563 489.55C599.563 489.55 594.065 501.55 594.065 517.55C560.066 517.549 558.566 471.05 594.065 471.05C607.499 471.05 616.5 471.05 616.5 468.05ZM608 454C605.239 454 603 456.238 603 459C603 461.761 605.239 464 608 464C610.761 464 613 461.761 613 459C613 456.238 610.761 454 608 454Z" fill="url(#paint1_linear_61_5)"/>
<path d="M594 423H654C766 423 766 585.5 654 585.5H594V547H615V567.5H654C736 567.5 736 444 654 444H637C621.5 435.5 601 436.5 594 452.5V423Z" fill="white"/>
<path d="M371.024 737V669.8H379.472V729.32H410.576V737H371.024ZM445.15 738.056C439.902 738.056 435.358 737.128 431.518 735.272C427.742 733.416 424.638 730.888 422.206 727.688C419.774 724.424 417.982 720.712 416.83 716.552C415.678 712.328 415.102 707.912 415.102 703.304C415.102 698.696 415.678 694.312 416.83 690.152C417.982 685.928 419.774 682.216 422.206 679.016C424.638 675.752 427.742 673.192 431.518 671.336C435.358 669.48 439.902 668.552 445.15 668.552C450.462 668.552 455.006 669.48 458.781 671.336C462.558 673.192 465.662 675.752 468.094 679.016C470.526 682.216 472.318 685.928 473.47 690.152C474.622 694.312 475.198 698.696 475.198 703.304C475.198 707.912 474.622 712.328 473.47 716.552C472.318 720.712 470.526 724.424 468.094 727.688C465.662 730.888 462.558 733.416 458.781 735.272C455.006 737.128 450.462 738.056 445.15 738.056ZM445.15 730.376C450.078 730.376 454.078 729.16 457.15 726.728C460.286 724.296 462.59 721.032 464.062 716.936C465.598 712.776 466.366 708.232 466.366 703.304C466.366 698.312 465.598 693.768 464.062 689.672C462.59 685.576 460.286 682.312 457.15 679.88C454.078 677.448 450.078 676.232 445.15 676.232C440.606 676.232 436.734 677.448 433.534 679.88C430.398 682.312 427.998 685.576 426.334 689.672C424.734 693.768 423.934 698.312 423.934 703.304C423.934 708.232 424.734 712.776 426.334 716.936C427.998 721.032 430.398 724.296 433.534 726.728C436.734 729.16 440.606 730.376 445.15 730.376ZM517.259 738.152C511.883 738.152 507.243 737.224 503.339 735.368C499.499 733.448 496.363 730.856 493.931 727.592C491.499 724.328 489.707 720.584 488.555 716.36C487.403 712.136 486.827 707.656 486.827 702.92C486.827 698.312 487.371 693.928 488.459 689.768C489.611 685.608 491.371 681.96 493.739 678.824C496.107 675.624 499.147 673.128 502.859 671.336C506.635 669.48 511.115 668.552 516.299 668.552C521.355 668.552 525.771 669.416 529.547 671.144C533.323 672.872 536.427 675.272 538.859 678.344C541.291 681.352 542.955 684.84 543.851 688.808L535.307 690.536C534.603 687.784 533.355 685.352 531.563 683.24C529.835 681.064 527.691 679.368 525.131 678.152C522.571 676.872 519.627 676.232 516.299 676.232C511.755 676.232 507.915 677.416 504.779 679.784C501.707 682.088 499.371 685.256 497.771 689.288C496.235 693.256 495.467 697.736 495.467 702.728C495.467 707.912 496.235 712.616 497.771 716.84C499.307 721.064 501.579 724.424 504.587 726.92C507.659 729.352 511.467 730.568 516.011 730.568C519.339 730.568 522.475 729.672 525.419 727.88C528.427 726.088 530.891 723.624 532.811 720.488C534.731 717.352 535.691 713.768 535.691 709.736H517.355V701.672H544.235V737H537.611C537.611 737 537.547 736.488 537.419 735.464C537.291 734.44 537.131 733.256 536.939 731.912C536.811 730.504 536.683 729.288 536.555 728.264C536.427 727.24 536.363 726.728 536.363 726.728C535.083 729.16 533.451 731.24 531.467 732.968C529.483 734.696 527.275 736.008 524.843 736.904C522.411 737.736 519.883 738.152 517.259 738.152ZM559.234 737V729.704H570.562V677.096H559.234V669.8H590.338V677.096H579.01V729.704H590.338V737H559.234ZM630.279 738.248C625.287 738.248 620.999 737.256 617.415 735.272C613.831 733.288 610.887 730.6 608.583 727.208C606.279 723.816 604.583 720.04 603.495 715.88C602.407 711.656 601.863 707.336 601.863 702.92C601.863 698.312 602.407 693.928 603.495 689.768C604.647 685.608 606.375 681.96 608.679 678.824C610.983 675.624 613.927 673.128 617.511 671.336C621.095 669.48 625.351 668.552 630.279 668.552C634.951 668.552 639.111 669.416 642.759 671.144C646.407 672.872 649.415 675.272 651.783 678.344C654.215 681.352 655.879 684.84 656.775 688.808L648.231 690.536C647.527 687.784 646.311 685.352 644.583 683.24C642.855 681.064 640.775 679.368 638.343 678.152C635.911 676.872 633.223 676.232 630.279 676.232C626.119 676.232 622.535 677.416 619.527 679.784C616.583 682.088 614.343 685.256 612.807 689.288C611.271 693.256 610.503 697.736 610.503 702.728C610.503 707.912 611.271 712.616 612.807 716.84C614.343 721.064 616.583 724.424 619.527 726.92C622.535 729.352 626.119 730.568 630.279 730.568C633.223 730.568 635.911 729.96 638.343 728.744C640.775 727.464 642.855 725.768 644.583 723.656C646.311 721.48 647.527 719.016 648.231 716.264L656.775 717.992C655.879 721.896 654.215 725.384 651.783 728.456C649.415 731.528 646.407 733.928 642.759 735.656C639.111 737.384 634.951 738.248 630.279 738.248Z" fill="white"/>
<defs>
<linearGradient id="paint0_linear_61_5" x1="579" y1="379" x2="467" y2="628" gradientUnits="userSpaceOnUse">
<stop stop-color="#53809E"/>
<stop offset="1" stop-color="#67B06A"/>
</linearGradient>
<linearGradient id="paint1_linear_61_5" x1="568" y1="442" x2="675" y2="544" gradientUnits="userSpaceOnUse">
<stop offset="0.355769" stop-color="#0033FF"/>
<stop offset="0.75" stop-color="#FFFF00"/>
</linearGradient>
</defs>
</svg>
